<?xml version="1.0" standalone="no"?>
<!DOCTYPE svg PUBLIC "-//W3C//DTD SVG 20010904//EN"
 "http://www.w3.org/TR/2001/REC-SVG-20010904/DTD/svg10.dtd">
<svg version="1.0" xmlns="http://www.w3.org/2000/svg"
 width="1024.000000pt" height="1024.000000pt" viewBox="0 0 1024.000000 1024.000000"
 preserveAspectRatio="xMidYMid meet">

<g transform="translate(0.000000,1024.000000) scale(0.100000,-0.100000)"
fill="#000000" stroke="none">
<path d="M4955 7035 c-7 -3 -9 -246 -7 -705 l2 -700 446 0 c308 0 459 4 488
12 35 10 129 99 679 647 572 571 637 639 637 667 0 18 -9 42 -19 55 l-19 24
-1099 2 c-604 2 -1102 0 -1108 -2z m2217 -32 c42 -38 30 -55 -229 -315 -135
-136 -251 -244 -257 -241 -6 3 -8 2 -3 -2 10 -12 -23 -46 -37 -38 -6 3 -8 2
-3 -2 10 -11 -23 -46 -36 -38 -5 3 -7 2 -4 -4 3 -5 -46 -61 -109 -124 -62 -62
-114 -109 -114 -104 0 6 -9 -4 -19 -21 -23 -37 -38 -49 -38 -29 0 8 4 12 8 9
10 -6 31 31 22 40 -3 3 -1 6 6 6 7 0 10 4 6 9 -3 6 4 8 15 6 11 -2 20 0 20 6
0 18 2 24 12 36 5 6 16 9 25 6 13 -5 13 -3 4 15 -10 18 -9 22 4 22 10 0 13 -5
9 -12 -5 -7 -3 -8 5 -3 18 11 0 26 -35 28 -20 2 -33 10 -42 30 -7 15 -17 27
-23 27 -5 0 -8 3 -8 8 3 20 -3 30 -27 41 -21 9 -24 14 -14 26 9 11 9 15 1 15
-6 0 -11 6 -11 14 0 8 -6 16 -12 19 -7 2 -9 8 -5 13 4 5 12 2 16 -5 12 -19 31
-4 30 22 0 12 -3 16 -6 10 -8 -22 -20 -14 -33 20 -35 93 -44 110 -50 91 -6
-16 -9 -14 -24 14 -9 18 -14 37 -10 43 6 11 -35 56 -48 52 -12 -4 -10 15 2 22
6 4 17 2 24 -4 22 -19 25 0 4 24 -16 19 -25 22 -39 15 -23 -13 -30 -1 -27 42
1 18 -2 48 -6 67 -6 26 -5 32 5 26 9 -6 11 -3 6 8 -4 10 -1 17 5 17 24 0 -9
21 -38 24 -19 3 -29 9 -28 20 1 12 -8 16 -35 17 -20 1 1 7 49 13 l85 12 -77 8
c-43 4 -81 5 -86 3 -4 -3 -57 -2 -117 2 -69 5 147 9 579 10 629 1 691 0 708
-16z m-1104 -10 c-10 -2 -28 -2 -40 0 -13 2 -5 4 17 4 22 1 32 -1 23 -4z m2
-83 c0 -5 -4 -10 -9 -10 -6 0 -13 5 -16 10 -3 6 1 10 9 10 9 0 16 -4 16 -10z
m0 -34 c0 -3 -4 -8 -10 -11 -5 -3 -10 -1 -10 4 0 6 5 11 10 11 6 0 10 -2 10
-4z m7 -68 c-3 -8 -6 -5 -6 6 -1 11 2 17 5 13 3 -3 4 -12 1 -19z m160 -254
c-3 -3 -12 -4 -19 -1 -8 3 -5 6 6 6 11 1 17 -2 13 -5z m0 -56 c-3 -8 -6 -5 -6
6 -1 11 2 17 5 13 3 -3 4 -12 1 -19z m175 -280 c-7 -7 -12 -8 -12 -2 0 14 12
26 19 19 2 -3 -1 -11 -7 -17z m-35 6 c-3 -3 -12 -4 -19 -1 -8 3 -5 6 6 6 11 1
17 -2 13 -5z m-97 -197 c0 -2 -12 -14 -27 -28 l-28 -24 24 28 c23 25 31 32 31
24z"/>
<path d="M6400 6349 c0 -11 4 -18 10 -14 5 3 7 12 3 20 -7 21 -13 19 -13 -6z"/>
<path d="M6385 6310 c3 -5 8 -10 11 -10 2 0 4 5 4 10 0 6 -5 10 -11 10 -5 0
-7 -4 -4 -10z"/>
<path d="M6514 6289 c0 -13 3 -15 13 -7 7 6 13 14 13 18 0 3 -6 7 -13 7 -7 0
-13 -8 -13 -18z"/>
<path d="M6415 6190 c-3 -5 -1 -10 4 -10 6 0 11 5 11 10 0 6 -2 10 -4 10 -3 0
-8 -4 -11 -10z"/>
<path d="M3552 5625 c-1 -5 -2 -612 -2 -1348 0 -904 3 -1344 10 -1357 17 -32
67 -53 109 -45 31 5 117 87 656 626 l620 619 155 0 c212 0 206 -3 439 236 101
104 314 320 472 479 321 323 326 330 271 385 l-30 30 -656 0 -656 0 1 -555 1
-555 -40 -48 c-62 -73 -1191 -1185 -1218 -1200 -32 -17 -75 -8 -103 22 l-21
22 -3 1350 c-1 742 -3 1345 -5 1339z"/>
<path d="M3868 5623 c166 -2 438 -2 605 0 166 1 30 2 -303 2 -333 0 -469 -1
-302 -2z"/>
<path d="M4928 5508 c5 -231 8 -253 10 -65 1 103 -1 187 -5 187 -5 0 -7 -55
-5 -122z"/>
</g>
</svg>
